<svg width="100" height="100" viewBox="0 0 100 100" fill="none" xmlns="http://www.w3.org/2000/svg">
<path d="M89.2374 32.2996C89.0374 32.0871 88.8249 31.8746 88.6124 31.6746C88.3999 31.4746 88.1999 31.2496 87.9874 31.0496C87.7749 30.8496 87.5749 30.6246 87.3624 30.4246C87.1499 30.2246 86.9499 29.9996 86.7374 29.7996C86.5249 29.5996 86.3249 29.3746 86.1124 29.1746C85.8999 28.9746 85.6999 28.7496 85.4874 28.5496C85.2749 28.3496 85.0749 28.1246 84.8624 27.9246C91.0626 34.018 94.6146 42.3075 94.7499 50.9996C94.7499 71.7121 73.7249 88.5621 47.8749 88.5621C33.3999 88.5621 20.4499 83.2746 11.8374 74.9871L12.4624 75.6121L13.0874 76.2371L13.7124 76.8621L14.3374 77.4871L14.9624 78.1121L15.5874 78.7371L16.2124 79.3621C24.8124 87.9996 38.0499 93.5621 52.8749 93.5621C78.7249 93.5621 99.7499 76.7121 99.7499 56.0621C99.7499 47.2371 95.9499 38.8746 89.2374 32.2996Z" fill="black"/>
<path d="M91.625 50.9996C91.625 70.0121 72.0375 85.4246 47.875 85.4246C23.7125 85.4246 4.125 70.0121 4.125 50.9996C4.125 39.2121 11.625 28.7996 23.15 22.6246C34.675 16.4496 41.85 10.1246 47.875 10.1246C53.9 10.1246 59.05 15.2871 72.6 22.6246C84.125 28.7996 91.625 39.2121 91.625 50.9996Z" fill="#FBF0DF"/>
<path d="M91.6251 50.9996C91.619 48.5572 91.2826 46.1269 90.6251 43.7746C87.2126 85.3996 36.4376 87.3996 16.4751 74.9496C25.4489 81.9051 36.5227 85.5993 47.8751 85.4246C72.0001 85.4246 91.6251 69.9871 91.6251 50.9996Z" fill="#F6DECE"/>
<path d="M31.0375 20.3371C36.625 16.9871 44.05 10.6996 51.35 10.6871C50.227 10.3241 49.0552 10.1345 47.875 10.1246C44.85 10.1246 41.625 11.6871 37.5625 14.0371C36.15 14.8621 34.6875 15.7746 33.1375 16.7246C30.225 18.5246 26.8875 20.5621 23.1375 22.5996C11.2375 29.0371 4.125 39.6496 4.125 50.9996C4.125 51.4996 4.125 51.9996 4.125 52.4871C11.7 25.7246 25.4625 23.6871 31.0375 20.3371Z" fill="#FFFEFC"/>
<path fill-rule="evenodd" clip-rule="evenodd" d="M44.2751 13.2871C44.2926 16.2386 43.6729 19.1592 42.4584 21.8493C41.2438 24.5394 39.463 26.9357 37.2376 28.8746C36.8876 29.1871 37.1626 29.7871 37.6126 29.6121C41.8251 27.9746 47.5126 23.0746 45.1126 13.1871C45.0126 12.6246 44.2751 12.7746 44.2751 13.2871ZM47.1126 13.2871C48.6421 15.7827 49.6138 18.5794 49.9612 21.4857C50.3085 24.3919 50.0233 27.3389 49.1251 30.1246C48.9751 30.5621 49.5126 30.9371 49.8126 30.5746C52.5501 27.0746 54.9376 20.1246 47.7876 12.6246C47.4251 12.2996 46.8626 12.7996 47.1126 13.2371V13.2871ZM50.5626 13.0746C52.9578 14.7703 54.9615 16.9599 56.4385 19.4957C57.9156 22.0316 58.8317 24.8547 59.1251 27.7746C59.1124 27.8798 59.1408 27.9859 59.2042 28.0708C59.2676 28.1557 59.3613 28.2129 59.4658 28.2306C59.5703 28.2483 59.6776 28.2251 59.7654 28.1658C59.8533 28.1065 59.9149 28.0156 59.9376 27.9121C61.0876 23.5496 60.4376 16.1121 50.9751 12.2496C50.4751 12.0496 50.1501 12.7246 50.5626 13.0246V13.0746ZM27.4876 26.0746C30.3367 25.2235 32.9746 23.7818 35.2295 21.8434C37.4844 19.9051 39.3058 17.5136 40.5751 14.8246C40.8001 14.3746 41.5126 14.5496 41.4001 15.0496C39.2376 25.0496 32.0001 27.1371 27.5001 26.8621C27.0251 26.8746 27.0376 26.2121 27.4876 26.0746Z" fill="#CCBEA7"/>
<path d="M47.875 88.5621C22.025 88.5621 1 71.7121 1 50.9996C1 38.4996 8.725 26.8371 21.6625 19.8496C25.4125 17.8496 28.625 15.8371 31.4875 14.0746C33.0625 13.0996 34.55 12.1871 35.9875 11.3371C40.375 8.73713 44.125 6.99963 47.875 6.99963C51.625 6.99963 54.9 8.49963 59 10.9246C60.25 11.6371 61.5 12.4121 62.8375 13.2621C65.95 15.1871 69.4625 17.3621 74.0875 19.8496C87.025 26.8371 94.75 38.4871 94.75 50.9996C94.75 71.7121 73.725 88.5621 47.875 88.5621ZM47.875 10.1246C44.85 10.1246 41.625 11.6871 37.5625 14.0371C36.15 14.8621 34.6875 15.7746 33.1375 16.7246C30.225 18.5246 26.8875 20.5621 23.1375 22.5996C11.2375 29.0371 4.125 39.6496 4.125 50.9996C4.125 69.9871 23.75 85.4371 47.875 85.4371C72 85.4371 91.625 69.9871 91.625 50.9996C91.625 39.6496 84.5125 29.0371 72.6 22.6246C67.875 20.1246 64.1875 17.7746 61.2 15.9246C59.8375 15.0871 58.5875 14.3121 57.45 13.6246C53.6625 11.3746 50.9 10.1246 47.875 10.1246Z" fill="black"/>
<path d="M56.6875 60.1246C56.126 62.4246 54.8477 64.4864 53.0375 66.0121C51.6784 67.3296 49.9191 68.1565 48.0375 68.3621C46.0994 68.1891 44.2783 67.3601 42.875 66.0121C41.0833 64.4792 39.823 62.4181 39.275 60.1246C39.2568 59.9885 39.2701 59.85 39.3137 59.7197C39.3574 59.5895 39.4302 59.471 39.5268 59.3732C39.6233 59.2755 39.7409 59.2012 39.8706 59.1559C40.0003 59.1106 40.1386 59.0957 40.275 59.1121H55.7C55.8354 59.0977 55.9723 59.1142 56.1004 59.1604C56.2285 59.2066 56.3444 59.2812 56.4395 59.3787C56.5346 59.4762 56.6063 59.594 56.6492 59.7232C56.6922 59.8524 56.7053 59.9896 56.6875 60.1246Z" fill="#B71422"/>
<path d="M42.8749 66.1121C44.2753 67.4609 46.0898 68.2977 48.0248 68.4871C49.9555 68.2949 51.7652 67.4583 53.1624 66.1121C53.6093 65.6956 54.0269 65.2487 54.4124 64.7746C53.6423 63.9011 52.7017 63.1943 51.6484 62.6977C50.595 62.2011 49.4512 61.9253 48.2874 61.8871C47.042 61.9166 45.8224 62.2483 44.7337 62.8537C43.6449 63.459 42.7196 64.3199 42.0374 65.3621C42.3249 65.6246 42.5749 65.8746 42.8749 66.1121Z" fill="#FF6164"/>
<path d="M43.075 65.1246C43.6947 64.3236 44.4879 63.6735 45.3951 63.2231C46.3023 62.7728 47.2997 62.534 48.3124 62.5246C50.1844 62.5799 51.968 63.3334 53.3124 64.6371C53.5999 64.3246 53.8749 63.9996 54.1374 63.6746C52.5472 62.1602 50.4457 61.299 48.25 61.2621C47.0765 61.2723 45.9199 61.542 44.8631 62.0521C43.8062 62.5621 42.8754 63.2998 42.1375 64.2121C42.433 64.5333 42.746 64.8379 43.075 65.1246Z" fill="black"/>
<path d="M47.9874 69.1121C45.9045 68.9296 43.9443 68.0487 42.4249 66.6121C40.49 64.9756 39.1281 62.7641 38.5374 60.2996C38.4951 60.0802 38.5023 59.8541 38.5585 59.6379C38.6147 59.4216 38.7186 59.2206 38.8624 59.0496C39.0338 58.8428 39.2501 58.6778 39.4949 58.5673C39.7397 58.4568 40.0065 58.4038 40.2749 58.4121H55.6999C55.968 58.4065 56.2339 58.4608 56.4783 58.5711C56.7227 58.6814 56.9393 58.8449 57.1124 59.0496C57.2549 59.2212 57.357 59.4227 57.4111 59.6391C57.4652 59.8554 57.4699 60.0812 57.4249 60.2996C56.8343 62.7641 55.4724 64.9756 53.5374 66.6121C52.0214 68.0461 50.066 68.9269 47.9874 69.1121ZM40.2749 59.8621C40.0749 59.8621 40.0249 59.9496 40.0124 59.9746C40.5408 62.1117 41.7361 64.025 43.4249 65.4371C44.6599 66.6538 46.2655 67.4236 47.9874 67.6246C49.7049 67.4259 51.3088 66.6657 52.5499 65.4621C54.2335 64.0476 55.4241 62.1348 55.9499 59.9996C55.9227 59.9597 55.8849 59.928 55.8408 59.9082C55.7967 59.8883 55.7479 59.881 55.6999 59.8871L40.2749 59.8621Z" fill="black"/>
<path d="M66.8999 60.8996C70.9385 60.8996 74.2124 58.9744 74.2124 56.5996C74.2124 54.2248 70.9385 52.2996 66.8999 52.2996C62.8613 52.2996 59.5874 54.2248 59.5874 56.5996C59.5874 58.9744 62.8613 60.8996 66.8999 60.8996Z" fill="#FEBBD0"/>
<path d="M29.0625 60.8996C33.1011 60.8996 36.375 58.9744 36.375 56.5996C36.375 54.2248 33.1011 52.2996 29.0625 52.2996C25.0239 52.2996 21.75 54.2248 21.75 56.5996C21.75 58.9744 25.0239 60.8996 29.0625 60.8996Z" fill="#FEBBD0"/>
<path fill-rule="evenodd" clip-rule="evenodd" d="M32.5 54.8746C33.8627 54.8771 35.1956 54.4753 36.3299 53.72C37.4642 52.9647 38.3489 51.8898 38.8721 50.6315C39.3953 49.3732 39.5335 47.988 39.2692 46.6511C39.0048 45.3143 38.3499 44.0859 37.3871 43.1214C36.4244 42.1569 35.1972 41.4997 33.8608 41.2329C32.5244 40.9661 31.1389 41.1018 29.8797 41.6227C28.6204 42.1437 27.544 43.0264 26.7866 44.1593C26.0293 45.2923 25.625 46.6244 25.625 47.9871C25.625 49.8116 26.3489 51.5616 27.6379 52.8529C28.9268 54.1442 30.6755 54.8713 32.5 54.8746ZM63.4625 54.8746C64.8268 54.8845 66.1633 54.489 67.3025 53.7383C68.4417 52.9875 69.3323 51.9153 69.8613 50.6577C70.3902 49.4001 70.5338 48.0137 70.2737 46.6744C70.0136 45.335 69.3616 44.1031 68.4004 43.1349C67.4392 42.1666 66.2121 41.5057 64.8747 41.2359C63.5373 40.966 62.1499 41.0995 60.8884 41.6193C59.627 42.1391 58.5484 43.0218 57.7893 44.1555C57.0303 45.2892 56.625 46.6228 56.625 47.9871C56.6217 49.8062 57.3394 51.5524 58.6209 52.8434C59.9025 54.1343 61.6435 54.8647 63.4625 54.8746Z" fill="black"/>
<path fill-rule="evenodd" clip-rule="evenodd" d="M30.375 48.4246C30.8873 48.4271 31.3888 48.2775 31.816 47.9947C32.2431 47.7118 32.5767 47.3086 32.7745 46.836C32.9722 46.3634 33.0253 45.8428 32.9268 45.34C32.8284 44.8373 32.583 44.3751 32.2216 44.012C31.8602 43.6488 31.3992 43.4012 30.897 43.3003C30.3947 43.1994 29.8738 43.25 29.4003 43.4454C28.9267 43.6409 28.5219 43.9725 28.237 44.3983C27.9521 44.8241 27.8001 45.3248 27.8 45.8371C27.8 46.5212 28.0709 47.1775 28.5535 47.6624C29.036 48.1473 29.691 48.4213 30.375 48.4246ZM61.3375 48.4246C61.8498 48.4271 62.3513 48.2775 62.7785 47.9947C63.2056 47.7118 63.5392 47.3086 63.737 46.836C63.9347 46.3634 63.9878 45.8428 63.8893 45.34C63.7909 44.8373 63.5455 44.3751 63.1841 44.012C62.8227 43.6488 62.3617 43.4012 61.8595 43.3003C61.3572 43.1994 60.8363 43.25 60.3628 43.4454C59.8892 43.6409 59.4844 43.9725 59.1995 44.3983C58.9146 44.8241 58.7626 45.3248 58.7625 45.8371C58.7625 46.5169 59.0299 47.1695 59.5071 47.6536C59.9843 48.1378 60.6328 48.4148 61.3125 48.4246H61.3375Z" fill="white"/>
</svg>
