<svg width="100" height="100" viewBox="0 0 100 100" fill="none" xmlns="http://www.w3.org/2000/svg">
<path d="M98.1141 45.5452L54.4531 1.88657C51.9402 -0.627881 47.8621 -0.627881 45.3461 1.88657L36.2797 10.953L47.7809 22.4541C50.4535 21.551 53.5184 22.1569 55.6488 24.2874C57.7894 26.4315 58.391 29.5225 57.466 32.2038L68.55 43.2881C71.2316 42.3643 74.3258 42.962 76.4676 45.1073C79.4609 48.0995 79.4609 52.9491 76.4676 55.9432C73.4734 58.9377 68.6238 58.9377 65.6281 55.9432C63.3766 53.6893 62.8203 50.3827 63.9602 47.6088L53.6234 37.2721L53.6223 64.4741C54.3716 64.8446 55.056 65.334 55.6488 65.9233C58.6422 68.9155 58.6422 73.7655 55.6488 76.762C52.6547 79.7549 47.8027 79.7549 44.8129 76.762C41.8195 73.7655 41.8195 68.9159 44.8129 65.9237C45.5302 65.206 46.3827 64.6376 47.3211 64.2514V36.7959C46.3814 36.4123 45.5284 35.8436 44.8129 35.1237C42.5449 32.8588 41.9996 29.5311 43.1617 26.7463L31.8242 15.4077L1.88672 45.3432C-0.628906 47.86 -0.628906 51.9385 1.88672 54.4534L45.5484 98.1127C48.0621 100.628 52.1394 100.628 54.6562 98.1127L98.1137 54.6561C100.629 52.1405 100.629 48.0596 98.1141 45.5452Z" fill="#DE4C36"/>
</svg>
