<svg width="100" height="100" viewBox="0 0 100 100" fill="none" xmlns="http://www.w3.org/2000/svg">
<path d="M100 0.000732422H0V100.001H100V0.000732422Z" fill="#F7DF1E"/>
<path d="M67.1746 78.1262C69.1889 81.415 71.8095 83.8325 76.4444 83.8325C80.3381 83.8325 82.8254 81.8865 82.8254 79.1976C82.8254 75.9754 80.2698 74.8341 75.9841 72.9595L73.6349 71.9516C66.8539 69.0627 62.3492 65.4436 62.3492 57.7928C62.3492 50.7452 67.719 45.3801 76.1111 45.3801C82.0857 45.3801 86.3809 47.4595 89.4762 52.9039L82.1587 57.6023C80.5476 54.7135 78.8095 53.5754 76.1111 53.5754C73.3587 53.5754 71.6143 55.3214 71.6143 57.6023C71.6143 60.4214 73.3603 61.5627 77.392 63.3087L79.7413 64.315C87.7254 67.7389 92.2333 71.2293 92.2333 79.077C92.2333 87.5373 85.5873 92.1722 76.6619 92.1722C67.9349 92.1722 62.2968 88.0135 59.5381 82.5627L67.1746 78.1262ZM33.9793 78.9404C35.4555 81.5595 36.7984 83.7738 40.027 83.7738C43.1143 83.7738 45.0619 82.5658 45.0619 77.869V45.9166H54.4587V77.996C54.4587 87.7262 48.7539 92.1547 40.427 92.1547C32.9032 92.1547 28.546 88.2611 26.3301 83.5714L33.9793 78.9404Z" fill="black"/>
</svg>
