<svg width="100" height="100" viewBox="0 0 100 100" fill="none" xmlns="http://www.w3.org/2000/svg">
<path d="M50.1455 0.273926L52.8141 5.28605C53.414 6.21098 54.064 7.02967 54.8295 7.79212C57.074 10.0086 59.1661 12.3742 61.0916 14.8728C65.6132 20.8099 68.6629 27.4032 70.8409 34.5339C72.1471 38.8898 72.8564 43.3582 72.9095 47.8766C73.1282 61.385 68.4973 72.9841 59.1605 82.624C57.6417 84.1527 56.001 85.5552 54.2546 86.8175C53.3296 86.8175 52.8922 86.1081 52.511 85.4551C51.8167 84.2441 51.3547 82.9141 51.1486 81.5335C50.8205 79.8992 50.6048 78.265 50.7111 76.5776V75.8152C50.6361 75.6527 49.8205 0.658272 50.1455 0.273926V0.273926Z" fill="#599636"/>
<path d="M50.1455 0.108234C50.0361 -0.1105 49.9268 0.0551128 49.8174 0.161355C49.8705 1.25502 49.4893 2.22995 48.8925 3.16113C48.2363 4.08607 47.3676 4.79539 46.4958 5.55783C41.6524 9.75127 37.8401 14.8165 34.7872 20.4817C30.725 28.1062 28.6314 36.2774 28.0377 44.8799C27.7659 47.9828 29.0189 58.932 29.997 62.0912C32.6655 70.478 37.4589 77.5056 43.6679 83.6052C45.1927 85.0738 46.8239 86.4362 48.5113 87.7455C49.0018 87.7455 49.055 87.308 49.1675 86.9831C49.3825 86.2877 49.5465 85.5775 49.658 84.8582L50.7517 76.6901L50.1455 0.108234Z" fill="#6CAC48"/>
<path d="M52.814 90.1359C52.9234 88.886 53.5234 87.8486 54.1765 86.8143C53.5203 86.5425 53.0328 86.0019 52.6516 85.3988C52.3228 84.8278 52.0507 84.226 51.8391 83.6021C51.0767 81.3147 50.9142 78.9149 50.6955 76.5776V75.1621C50.4236 75.3808 50.3673 77.2307 50.3673 77.5057C50.2083 79.976 49.8805 82.4326 49.3862 84.8582C49.2237 85.8394 49.1143 86.8174 48.5112 87.6892C48.5112 87.7986 48.5112 87.908 48.5644 88.0705C49.5455 90.9577 49.8143 93.8981 49.9799 96.8948V97.9884C49.9799 99.2946 49.9268 99.0196 51.0111 99.4571C51.4485 99.6196 51.936 99.6758 52.3735 100.001C52.7016 100.001 52.7547 99.7289 52.7547 99.5102L52.5922 97.7135V92.7014C52.5391 91.8264 52.7016 90.9577 52.8109 90.1391L52.814 90.1359Z" fill="#C2BFBF"/>
</svg>
