<svg width="100" height="100" viewBox="0 0 100 100" fill="none" xmlns="http://www.w3.org/2000/svg">
<path d="M92.1104 77.067C86.6696 76.9293 82.4527 77.4817 78.916 79.0003C77.8957 79.4142 76.2632 79.4146 76.1272 80.7265C76.6713 81.2788 76.7394 82.1764 77.2155 82.9355C78.0325 84.3161 79.4598 86.1803 80.7522 87.1473C82.1802 88.2517 83.609 89.356 85.1047 90.3227C87.7575 91.9798 90.7504 92.946 93.3348 94.6031C94.8316 95.569 96.3269 96.8126 97.8233 97.8479C98.5716 98.3994 99.0473 99.2978 100 99.6427V99.4359C99.5235 98.8141 99.3874 97.9169 98.9117 97.2265C98.2323 96.536 97.5513 95.9146 96.8711 95.2241C94.8989 92.5321 92.4505 90.1846 89.7981 88.2517C87.6219 86.7327 82.8604 84.6617 81.9766 82.107C81.9766 82.107 81.9081 82.0383 81.8405 81.9693C83.3366 81.8312 85.1047 81.2788 86.5335 80.8646C88.8458 80.2427 90.9541 80.3812 93.3348 79.7598C94.4227 79.4836 95.511 79.1384 96.599 78.7932V78.1722C95.3754 76.9293 94.4911 75.2726 93.1987 74.0989C89.7301 71.0604 85.921 68.0923 81.9766 65.607C79.8679 64.2261 77.1471 63.3285 74.9028 62.1551C74.0874 61.7404 72.7266 61.5337 72.2508 60.8432C71.026 59.3246 70.3458 57.3227 69.462 55.5275C67.4902 51.73 65.5852 47.519 63.8847 43.5151C62.6611 40.8223 61.9129 38.1295 60.4164 35.6447C53.4111 23.908 45.7936 16.7971 34.0957 9.82387C31.5789 8.3743 28.5864 7.75289 25.3898 6.99378C23.6901 6.92434 21.9892 6.78664 20.2891 6.7172C19.2008 6.23388 18.1124 4.9224 17.1602 4.30099C13.2842 1.81534 3.28555 -3.56905 0.429089 3.54188C-1.40746 8.02907 3.1499 12.4472 4.71359 14.7261C5.87072 16.3138 7.36639 18.1086 8.18263 19.9038C8.65877 21.0768 8.79442 22.3204 9.27057 23.5628C10.3593 26.5996 11.3788 29.9833 12.8076 32.8142C13.5559 34.2637 14.3717 35.7823 15.324 37.0942C15.8682 37.8533 16.8201 38.199 17.0245 39.4414C16.0726 40.8223 16.0042 42.8937 15.4596 44.6194C13.0113 52.4208 13.964 62.0861 17.4322 67.8161C18.5202 69.5414 21.1049 73.3397 24.5736 71.8894C27.6345 70.647 26.9543 66.7117 27.8378 63.2598C28.0426 62.4305 27.9066 61.8789 28.3143 61.3266V61.465C29.2666 63.3975 30.2185 65.2622 31.1028 67.1951C33.2114 70.5775 36.8837 74.0989 39.9442 76.4464C41.5771 77.6884 42.8691 79.8289 44.9097 80.5884V80.3808H44.7733C44.3652 79.7594 43.753 79.4836 43.2092 78.9999C41.9852 77.7579 40.6245 76.2389 39.6726 74.858C36.8165 70.9914 34.2993 66.7113 32.0551 62.2928C30.9671 60.1532 30.0144 57.8056 29.1306 55.6656C28.7221 54.8362 28.7221 53.5942 28.0422 53.1803C27.0219 54.6989 25.5259 56.0108 24.7777 57.8747C23.486 60.8432 23.3496 64.5023 22.8735 68.299C22.6014 68.3688 22.737 68.299 22.601 68.4379C20.4251 67.8847 19.6769 65.607 18.8603 63.6737C16.8197 58.7723 16.4796 50.9018 18.2485 45.2408C18.7246 43.7909 20.7652 39.2346 19.949 37.8537C19.5409 36.5419 18.1801 35.7824 17.4322 34.7471C16.5484 33.4352 15.5957 31.7789 14.9839 30.3285C13.3514 26.4623 12.5352 22.1819 10.767 18.3157C9.95077 16.5205 8.52312 14.6571 7.36639 13C6.07439 11.1361 4.64596 9.82387 3.62566 7.6148C3.28595 6.85569 2.80941 5.61286 3.35357 4.78431C3.48962 4.23194 3.76131 4.0252 4.30586 3.88711C5.19013 3.12721 7.70688 4.09385 8.59036 4.50813C11.1071 5.54302 13.2154 6.51046 15.324 7.96003C16.2759 8.65049 17.2962 9.96236 18.5202 10.3076H19.9486C22.1252 10.7905 24.5732 10.4457 26.6138 11.0667C30.2189 12.2401 33.4831 13.9662 36.408 15.8305C45.3179 21.5605 52.6625 29.7071 57.628 39.4414C58.4442 41.0286 58.7839 42.4794 59.5322 44.1357C60.961 47.519 62.7291 50.9709 64.1568 54.2847C65.5852 57.529 66.9452 60.8432 68.9858 63.536C70.0061 64.9852 74.0866 65.7451 75.9231 66.5046C77.2835 67.1256 79.3922 67.6784 80.6161 68.4375C82.9284 69.8867 85.2407 71.5446 87.4174 73.1318C88.5057 73.9604 91.906 75.6865 92.1104 77.067V77.067Z" fill="#00546B"/>
<path d="M22.7367 17.0725C21.5807 17.0725 20.7649 17.2114 19.9486 17.4181V17.5562H20.0846C20.6292 18.661 21.5807 19.4205 22.2605 20.3867C22.8051 21.491 23.2808 22.5962 23.8254 23.7009C23.893 23.6315 23.961 23.5628 23.961 23.5628C24.9137 22.872 25.3894 21.7676 25.3894 20.1105C24.9813 19.6276 24.9133 19.1443 24.5732 18.661C24.1655 17.9701 23.2808 17.6253 22.7367 17.0725V17.0725Z" fill="#00546B"/>
</svg>
