<svg width="100" height="100" viewBox="0 0 100 100" fill="none" xmlns="http://www.w3.org/2000/svg">
<path d="M46.2785 1.06759C48.758 -0.35168 51.9876 -0.358091 54.465 1.06759C66.9286 8.11017 79.3961 15.1417 91.8576 22.1886C94.2014 23.5088 95.7692 26.1173 95.7454 28.818V71.1889C95.7628 74.0014 94.0401 76.6722 91.5673 77.9626C79.1447 84.9663 66.7285 91.9786 54.308 98.9824C51.7772 100.429 48.4827 100.318 46.031 98.7523C42.3067 96.5933 38.576 94.445 34.8513 92.2881C34.0902 91.8344 33.2322 91.4732 32.6948 90.7353C33.1699 90.0949 34.0193 90.0151 34.7096 89.7356C36.2642 89.2412 37.692 88.4477 39.1202 87.6777C39.4813 87.4305 39.9222 87.5253 40.2684 87.7465C43.4531 89.5725 46.6097 91.4515 49.8051 93.2601C50.4868 93.6536 51.177 93.1311 51.7597 92.8063C63.9501 85.9165 76.1555 79.0527 88.3438 72.1608C88.7954 71.9436 89.0451 71.4642 89.0084 70.9695C89.0169 56.9922 89.0105 43.0125 89.0127 29.0353C89.0643 28.474 88.7395 27.9579 88.232 27.7282C75.8524 20.7565 63.4793 13.7741 51.1019 6.8006C50.8874 6.65317 50.6334 6.57406 50.3732 6.57368C50.1129 6.5733 49.8587 6.65166 49.6438 6.79846C37.2664 13.7741 24.8954 20.7629 12.518 27.7342C12.0123 27.9643 11.6728 28.4718 11.733 29.0353C11.7352 43.0125 11.733 56.9922 11.733 70.9716C11.7116 71.213 11.7646 71.4551 11.8849 71.6655C12.0053 71.8758 12.1872 72.0442 12.4062 72.148C15.7091 74.021 19.0164 75.8808 22.3215 77.7474C24.1834 78.7497 26.4696 79.3451 28.521 78.5773C30.3314 77.928 31.6003 76.0806 31.5658 74.1585C31.5829 60.2628 31.5573 46.365 31.5786 32.4714C31.5334 31.8546 32.1185 31.3449 32.7183 31.403C34.3053 31.3923 35.8945 31.3816 37.4815 31.4072C38.144 31.3923 38.5998 32.0565 38.5179 32.678C38.5115 46.6617 38.535 60.6457 38.5072 74.6293C38.5115 78.3561 36.9804 82.4113 33.5332 84.2348C29.2864 86.4347 24.0374 85.9682 19.8419 83.8587C16.2099 82.0459 12.7438 79.9064 9.17621 77.9643C6.69702 76.6811 4.98286 73.9996 5.00031 71.1892V28.818C4.97431 26.0614 6.60442 23.4055 9.02128 22.1045C21.4418 15.0951 33.8601 8.08025 46.2785 1.06759Z" fill="#8CC84B"/>
<path d="M57.1141 30.4181C62.5312 30.0695 68.3304 30.2116 73.2051 32.8802C76.9793 34.9253 79.0717 39.2173 79.1383 43.4103C79.0329 43.9758 78.4416 44.2878 77.9017 44.249C76.33 44.2469 74.7579 44.2704 73.1862 44.2383C72.5195 44.264 72.132 43.6492 72.0483 43.0598C71.5967 41.0536 70.5026 39.0666 68.6143 38.0989C65.7156 36.6476 62.3545 36.7206 59.1937 36.7509C56.8862 36.8734 54.4048 37.0732 52.4499 38.4302C50.9491 39.458 50.4932 41.533 51.0289 43.2041C51.5339 44.4039 52.919 44.7911 54.0522 45.1479C60.5805 46.8553 67.4985 46.6855 73.9021 48.9324C76.5533 49.8484 79.1468 51.6292 80.0543 54.4051C81.2414 58.1255 80.721 62.5724 78.0741 65.5591C75.9276 68.0169 72.8012 69.3546 69.6831 70.0812C65.535 71.0061 61.2302 71.0296 57.0176 70.619C53.0564 70.1674 48.9343 69.1267 45.8764 66.4278C43.2615 64.1573 41.9843 60.6196 42.1111 57.2052C42.1414 56.6285 42.7155 56.2264 43.2679 56.2738C44.8507 56.261 46.4334 56.2567 48.0162 56.276C48.6483 56.2307 49.117 56.7771 49.1494 57.3729C49.4415 59.2844 50.1598 61.2906 51.8266 62.4239C55.0434 64.4992 59.0797 64.3571 62.7631 64.4151C65.8146 64.2798 69.2401 64.2388 71.7303 62.2219C73.0441 61.0716 73.4334 59.1469 73.0783 57.4912C72.6937 56.0932 71.2313 55.4418 69.9755 55.0159C63.5309 52.9773 56.5357 53.717 50.1534 51.4116C47.5624 50.4959 45.0569 48.7647 44.0614 46.1028C42.6724 42.3354 43.3089 37.6755 46.2333 34.7896C49.0846 31.919 53.2007 30.8135 57.1141 30.4178V30.4181Z" fill="#8CC84B"/>
</svg>
