<svg width="100" height="100" viewBox="0 0 100 100" fill="none" xmlns="http://www.w3.org/2000/svg">
<path d="M49.6397 0.000732422C24.2535 0.000732422 25.8385 11.0097 25.8385 11.0097L25.8667 22.4154H50.0924V25.8396H16.2447C16.2447 25.8396 0 23.9973 0 49.6118C0 75.2272 14.1788 74.3187 14.1788 74.3187H22.6406V62.4322C22.6406 62.4322 22.1844 48.2535 36.593 48.2535H60.6205C60.6205 48.2535 74.1199 48.4716 74.1199 35.2068V13.2742C74.1199 13.2742 76.1702 0.000732422 49.6397 0.000732422ZM36.2817 7.6708C36.8542 7.67029 37.4211 7.78266 37.9501 8.0015C38.4791 8.22033 38.9598 8.54133 39.3645 8.94613C39.7693 9.35093 40.0903 9.83157 40.3092 10.3606C40.528 10.8896 40.6404 11.4565 40.6399 12.029C40.6404 12.6014 40.528 13.1684 40.3092 13.6974C40.0903 14.2264 39.7693 14.707 39.3645 15.1118C38.9598 15.5166 38.4791 15.8376 37.9501 16.0564C37.4211 16.2753 36.8542 16.3877 36.2817 16.3871C35.7092 16.3877 35.1423 16.2753 34.6133 16.0564C34.0843 15.8376 33.6037 15.5166 33.1989 15.1118C32.7941 14.707 32.4731 14.2264 32.2542 13.6974C32.0354 13.1684 31.923 12.6014 31.9235 12.029C31.923 11.4565 32.0354 10.8896 32.2542 10.3606C32.4731 9.83157 32.7941 9.35093 33.1989 8.94613C33.6037 8.54133 34.0843 8.22033 34.6133 8.0015C35.1423 7.78266 35.7092 7.67029 36.2817 7.6708V7.6708Z" fill="url(#paint0_linear_902_103)"/>
<path d="M50.3607 99.4808C75.747 99.4808 74.1619 88.4718 74.1619 88.4718L74.1337 77.0665H49.9076V73.6422H83.7553C83.7553 73.6422 100 75.4846 100 49.8692C100 24.2542 85.8213 25.1627 85.8213 25.1627H77.3594V37.0488C77.3594 37.0488 77.8156 51.2276 63.407 51.2276H39.3795C39.3795 51.2276 25.8801 51.0095 25.8801 64.2747V86.2077C25.8801 86.2077 23.8302 99.4808 50.3603 99.4808H50.3607ZM63.7187 91.8115C63.1462 91.812 62.5793 91.6996 62.0503 91.4808C61.5213 91.262 61.0407 90.941 60.6359 90.5362C60.2311 90.1314 59.9101 89.6507 59.6912 89.1217C59.4724 88.5927 59.36 88.0258 59.3605 87.4533C59.36 86.8808 59.4723 86.3138 59.6911 85.7848C59.9099 85.2557 60.2309 84.775 60.6357 84.3702C61.0405 83.9654 61.5212 83.6443 62.0502 83.4255C62.5792 83.2066 63.1462 83.0942 63.7187 83.0947C64.2912 83.0942 64.8581 83.2066 65.3871 83.4254C65.9161 83.6443 66.3967 83.9653 66.8015 84.3701C67.2063 84.7749 67.5273 85.2555 67.7462 85.7845C67.965 86.3135 68.0774 86.8805 68.0769 87.4529C68.0774 88.0254 67.965 88.5923 67.7462 89.1213C67.5273 89.6503 67.2063 90.131 66.8015 90.5358C66.3967 90.9406 65.9161 91.2616 65.3871 91.4804C64.8581 91.6992 64.2912 91.8116 63.7187 91.8111V91.8115Z" fill="url(#paint1_linear_902_103)"/>
<defs>
<linearGradient id="paint0_linear_902_103" x1="9.60996" y1="8.94835" x2="59.1669" y2="58.0109" gradientUnits="userSpaceOnUse">
<stop stop-color="#387EB8"/>
<stop offset="1" stop-color="#366994"/>
</linearGradient>
<linearGradient id="paint1_linear_902_103" x1="40.0281" y1="40.4534" x2="93.2466" y2="90.7625" gradientUnits="userSpaceOnUse">
<stop stop-color="#FFE052"/>
<stop offset="1" stop-color="#FFC331"/>
</linearGradient>
</defs>
</svg>
