<svg width="101" height="100" viewBox="0 0 101 100" fill="none" xmlns="http://www.w3.org/2000/svg">
<path d="M50.3067 58.817C55.1758 58.817 59.1229 54.8699 59.1229 50.0008C59.1229 45.1317 55.1758 41.1846 50.3067 41.1846C45.4376 41.1846 41.4905 45.1317 41.4905 50.0008C41.4905 54.8699 45.4376 58.817 50.3067 58.817Z" fill="#61DAFB"/>
<path d="M50.3066 68.0633C76.4333 68.0633 97.6132 59.9764 97.6132 50.0008C97.6132 40.0251 76.4333 31.9382 50.3066 31.9382C24.1799 31.9382 3 40.0251 3 50.0008C3 59.9764 24.1799 68.0633 50.3066 68.0633Z" stroke="#61DAFB" stroke-width="5"/>
<path d="M34.664 59.032C47.7274 81.6584 65.3207 95.9573 73.9599 90.9695C82.5991 85.9816 79.0126 63.5959 65.9492 40.9695C52.8858 18.3431 35.2925 4.04417 26.6533 9.032C18.0141 14.0198 21.6006 36.4056 34.664 59.032Z" stroke="#61DAFB" stroke-width="5"/>
<path d="M34.664 40.9694C21.6007 63.5958 18.0141 85.9816 26.6533 90.9694C35.2925 95.9573 52.8859 81.6584 65.9492 59.032C79.0126 36.4056 82.5991 14.0198 73.9599 9.03197C65.3208 4.04414 47.7274 18.343 34.664 40.9694Z" stroke="#61DAFB" stroke-width="5"/>
</svg>
