<svg width="100" height="100" viewBox="0 0 100 100" fill="none" xmlns="http://www.w3.org/2000/svg">
<path d="M0 0.000732422H100V100.001H0V0.000732422Z" fill="#017ACB"/>
<path d="M48.0157 37.032H52.8126V45.3132H39.8438V82.157L39.5 82.2507C39.0313 82.3757 32.8594 82.3757 31.5313 82.2351L30.4688 82.1414V45.3132H17.5V37.032L21.6094 36.9851C23.8594 36.9539 29.6406 36.9539 34.4532 36.9851C39.2657 37.0164 45.3594 37.032 48.0157 37.032V37.032ZM84.6251 78.2507C82.7189 80.2664 80.672 81.3914 77.2657 82.3132C75.7814 82.7195 75.5313 82.7351 72.1876 82.7195C68.8438 82.7039 68.5782 82.7038 66.9532 82.282C62.7501 81.2038 59.3594 79.0945 57.0469 76.1101C56.3907 75.2664 55.3126 73.5164 55.3126 73.2976C55.3126 73.2351 55.4688 73.0945 55.6719 73.0007C55.8751 72.907 56.2969 72.6414 56.6407 72.4382C56.9844 72.2351 57.6094 71.8601 58.0313 71.6414C58.4532 71.4226 59.6719 70.7039 60.7345 70.0632C61.797 69.4226 62.7657 68.907 62.8751 68.907C62.9845 68.907 63.1876 69.1257 63.3438 69.3914C64.2813 70.9695 66.4688 72.9851 68.0157 73.6726C68.9688 74.0789 71.0782 74.532 72.0938 74.532C73.0313 74.532 74.7501 74.1257 75.672 73.7039C76.6563 73.2507 77.1564 72.7976 77.7501 71.8914C78.1564 71.2507 78.2032 71.0789 78.1876 69.8601C78.1876 68.7351 78.1251 68.4226 77.8126 67.907C76.9376 66.4695 75.7501 65.7195 70.9376 63.5945C65.9688 61.3914 63.7345 60.0789 61.9219 58.3132C60.5782 57.0007 60.3126 56.6414 59.4688 55.0007C58.3751 52.8914 58.2344 52.2039 58.2188 49.0632C58.2032 46.8601 58.2501 46.1414 58.4844 45.3914C58.8126 44.2664 59.8751 42.0945 60.3594 41.5476C61.3594 40.3757 61.7188 40.0164 62.422 39.4382C64.547 37.6882 67.8595 36.532 71.0313 36.4226C71.3907 36.4226 72.5782 36.4851 73.6876 36.5632C76.8751 36.8289 79.047 37.6101 81.1407 39.282C82.7189 40.532 85.1095 43.4695 84.8751 43.8601C84.7189 44.0945 78.4845 48.2507 78.0782 48.3757C77.8282 48.4539 77.6564 48.3601 77.3126 47.9539C75.1876 45.407 74.3282 44.8601 72.2657 44.7351C70.797 44.6414 70.0157 44.8132 69.0313 45.4695C68.0001 46.157 67.5001 47.2039 67.5001 48.657C67.5157 50.782 68.3282 51.782 71.3282 53.2664C73.2657 54.2195 74.922 55.0007 75.047 55.0007C75.2345 55.0007 79.2501 57.0007 80.297 57.6257C85.172 60.4851 87.1564 63.4226 87.672 68.4851C88.047 72.2976 86.9689 75.782 84.6251 78.2507V78.2507Z" fill="white"/>
</svg>
